<svg width="80" height="80" viewBox="0 0 80 80" fill="none" xmlns="http://www.w3.org/2000/svg">
<path d="M4.6554 77.0437C6.07415 78.5812 11.9179 75.8999 16.5304 73.7499C19.9867 72.1437 33.8179 66.4687 40.6929 63.5249C42.5492 62.7312 45.2491 61.6937 47.1929 59.1374C48.9179 56.8624 53.4929 47.1999 44.2804 37.4124C34.9304 27.4749 25.2992 30.2187 21.6992 32.7687C19.5804 34.2687 17.8554 37.6499 17.0804 39.3687C13.8054 46.6312 9.13665 59.9374 7.23665 65.1687C5.8429 69.0249 3.24915 75.5187 4.6554 77.0437Z" fill="#FFC107"/>
<path d="M16.1562 41.5566C16.2437 42.6441 16.4625 44.4129 17.2125 47.8191C17.725 50.1566 18.5625 52.6066 19.2438 54.2254C21.2875 59.0941 24.1562 61.0566 27.0625 62.6316C32 65.3066 35.3563 65.8066 35.3563 65.8066L31.3313 67.4504C31.3313 67.4504 28.8938 66.9441 25.5688 65.3066C22.4 63.7441 19.1 61.1004 16.6875 55.9254C15.6438 53.6816 15.0375 51.5066 14.6875 49.7816C14.2562 47.6441 14.1875 46.4316 14.1875 46.4316L16.1562 41.5566Z" fill="#FF8F00"/>
<path d="M11.2133 54.2314C11.2133 54.2314 11.7133 58.2877 15.0633 63.4064C18.9883 69.3939 24.4695 70.3752 24.4695 70.3752L20.8258 71.8752C20.8258 71.8752 16.757 70.6314 12.8883 65.3502C10.4758 62.0564 9.80078 58.1189 9.80078 58.1189L11.2133 54.2314Z" fill="#FF8F00"/>
<path d="M7.74297 63.8438C7.74297 63.8438 8.65547 67.3437 10.6555 69.9562C13.0367 73.075 16.068 73.9813 16.068 73.9813L13.2742 75.2187C13.2742 75.2187 11.1555 74.775 8.83672 71.8375C7.07422 69.6063 6.57422 67.0437 6.57422 67.0437L7.74297 63.8438Z" fill="#FF8F00"/>
<path opacity="0.44" d="M6.22384 72.7313C6.09884 72.45 6.09884 72.1312 6.23009 71.8563L22.1488 38.8438L24.7676 48.6875L8.01759 72.8812C7.56759 73.5562 6.55509 73.4688 6.22384 72.7313Z" fill="#FFFDE7"/>
<path d="M26.0312 51.9937C33.4687 60.6937 41.9375 59.6062 44.7562 57.4062C47.5812 55.2 49.8125 47.6187 42.4062 39.0625C34.6437 30.0999 25.8562 32.6562 23.825 34.5937C21.7937 36.5312 19.2062 44.0125 26.0312 51.9937Z" fill="url(#paint0_linear_3295_26514)"/>
<path d="M51.5754 55.5746C48.8629 53.2996 47.4191 53.7059 45.4816 54.5121C42.9816 55.5496 39.0504 56.3184 33.7129 54.5121L35.3191 50.6434C38.4879 51.7121 40.7816 51.1934 42.7629 50.0246C45.3129 48.5246 48.8004 46.4684 54.2254 51.0246C56.4879 52.9246 58.8066 54.1871 60.5066 53.6121C61.7441 53.1996 62.4004 51.3559 62.7316 49.8871C62.7629 49.7559 62.8129 49.3809 62.8504 49.0496C63.1504 46.7559 63.6504 41.8059 67.3379 39.2746C71.2816 36.5684 75.4254 36.5684 75.4254 36.5684L76.1754 44.0184C74.2691 43.7371 72.9441 44.1246 71.8254 44.7434C67.6129 47.0871 71.2816 56.0871 64.7254 59.1121C58.4191 62.0434 53.2629 56.9871 51.5754 55.5746Z" fill="#03A9F4"/>
<path d="M28.3743 46.075L25.6618 43.6438C30.6431 38.0813 29.3306 33.9938 28.3743 31.0188C28.1806 30.4188 27.9993 29.85 27.8806 29.3062C27.4556 27.3813 27.3681 25.7063 27.4993 24.2438C25.5868 21.8625 24.7431 19.3687 24.6868 19.2C23.5243 15.6812 24.3993 12.25 26.4056 9.03125C30.4618 2.5 37.8056 2.5 37.8056 2.5L40.2556 9.05625C38.3931 8.98125 32.2868 9.075 30.4118 12.0312C28.0431 15.7563 29.5993 18.0562 29.7118 18.3187C30.1681 17.725 30.6306 17.25 31.0431 16.8813C34.0368 14.225 36.6368 13.8438 38.2931 13.9937C40.1556 14.1625 41.8431 15.1 43.0493 16.6375C44.3681 18.325 44.9118 20.5188 44.4931 22.5125C44.0868 24.4563 42.7931 26.1 40.8493 27.1437C37.4556 28.9688 34.6306 28.7188 32.7368 28.0875C32.7493 28.1312 32.7556 28.1812 32.7681 28.225C32.8368 28.5375 32.9743 28.975 33.1368 29.4812C34.2431 32.9062 36.2993 38.3438 28.3743 46.075ZM32.9681 22.6187C33.3306 22.8812 33.7118 23.1 34.1056 23.2562C35.4181 23.7812 36.8493 23.6062 38.4743 22.7312C39.4306 22.2188 39.5431 21.6688 39.5806 21.4875C39.6931 20.9438 39.5056 20.25 39.0993 19.7313C38.7431 19.275 38.3306 19.0375 37.8368 18.9875C36.8993 18.9062 35.6306 19.5 34.3618 20.6312C33.7556 21.175 33.2931 21.8438 32.9681 22.6187Z" fill="#F44336"/>
<path d="M39.2309 47.0934L35.3496 46.9871C35.3496 46.9871 37.1934 36.5746 43.1621 34.8246C44.2809 34.4996 45.5059 34.1684 46.7371 33.9871C47.4684 33.8746 48.6246 33.7059 49.1934 33.4934C49.3246 32.5121 48.9121 31.2621 48.4496 29.8434C48.0871 28.7434 47.7121 27.6121 47.5121 26.3746C47.1246 23.9621 47.7684 21.8309 49.3246 20.3621C51.2246 18.5809 54.2934 18.0121 57.7559 18.7996C59.7309 19.2496 61.1871 20.2184 62.4684 21.0684C64.2996 22.2871 65.3684 22.9059 67.6059 21.3996C70.3121 19.5746 66.7746 12.4309 64.8934 8.30586L71.9121 5.38086C72.8559 7.44336 77.4121 18.0559 74.4059 24.1121C73.3934 26.1496 71.6496 27.4996 69.3621 28.0059C64.3871 29.1184 61.4746 27.1809 59.3496 25.7684C58.3434 25.0996 57.4621 24.5746 56.5059 24.2996C49.8621 22.4059 59.1371 32.1809 54.7934 36.5746C52.1871 39.2059 45.8184 39.8996 45.4059 39.9996C41.3059 40.9871 39.2309 47.0934 39.2309 47.0934Z" fill="#F48FB1"/>
<path d="M27.493 24.2441C27.3743 25.6191 27.318 26.4379 27.6743 28.2254C29.393 29.4879 33.1368 29.4879 33.1368 29.4879C32.9743 28.9816 32.8305 28.5441 32.768 28.2316C32.7555 28.1879 32.7493 28.1379 32.7368 28.0941C28.9305 26.1941 27.493 24.2441 27.493 24.2441Z" fill="#C92B27"/>
<path d="M19.7066 30.3998L13.2441 27.2311L16.4629 22.5811L21.5316 25.9373L19.7066 30.3998Z" fill="#FFC107"/>
<path d="M10.1816 21.6246C6.88164 21.1809 3.51914 18.3809 3.15039 18.0621L6.39414 14.2559C7.37539 15.0871 9.45664 16.4809 10.8504 16.6684L10.1816 21.6246Z" fill="#FB8C00"/>
<path d="M16.0059 13.2934L11.2559 11.7371C11.7996 10.0746 11.9434 8.28086 11.6621 6.54961L16.5996 5.75586C17.0059 8.26836 16.7996 10.8746 16.0059 13.2934Z" fill="#03A9F4"/>
<path d="M45.6719 9.57852L50.5563 8.50977L51.9669 14.9573L47.0825 16.026L45.6719 9.57852Z" fill="#FB8C00"/>
<path d="M57.7871 11.1064L54.3496 7.4752C56.1496 5.76895 56.5621 3.5377 56.5621 3.5127L61.4996 4.31895C61.4371 4.7127 60.8059 8.2502 57.7871 11.1064Z" fill="#FFC107"/>
<path d="M59.6973 30.3644L64.0641 29L65.556 33.7725L61.1891 35.1369L59.6973 30.3644Z" fill="#FB8C00"/>
<path d="M60.9688 70.6439L56 70.0564C56.2125 68.2877 54.8937 66.1189 54.5312 65.6377L58.5313 62.6377C58.8313 63.0314 61.4375 66.6377 60.9688 70.6439Z" fill="#F44336"/>
<path d="M75.232 64.305C73.3633 64.0238 71.4508 63.9113 69.5633 63.98L69.3945 58.98C71.5883 58.905 73.807 59.03 75.9758 59.3613L75.232 64.305Z" fill="#FB8C00"/>
<path d="M68.5098 71.189L72.0223 67.6309L76.8573 72.404L73.3441 75.9621L68.5098 71.189Z" fill="#F48FB1"/>
<path d="M58.1873 39.5811L61.7998 43.7117L57.6691 47.3242L54.0566 43.1936L58.1873 39.5811Z" fill="#F44336"/>
<defs>
<linearGradient id="paint0_linear_3295_26514" x1="46.49" y1="38.6493" x2="27.8856" y2="49.8118" gradientUnits="userSpaceOnUse">
<stop offset="0.024" stop-color="#8F4700"/>
<stop offset="1" stop-color="#703E2D"/>
</linearGradient>
</defs>
</svg>
