<svg width="85" height="99" viewBox="0 0 85 99" fill="none" xmlns="http://www.w3.org/2000/svg">
<path d="M14.7787 30.2532C15.0749 29.0704 14.2174 28.6277 13.5805 28.1148C12.9668 27.6206 12.267 27.2232 11.5738 26.8397C7.92436 24.8204 7.08519 23.219 7.59542 19.1756C8.14257 14.8396 12.3399 10.3493 16.5932 9.56561C17.0027 9.49014 17.4384 9.37973 17.9359 9.77511C18.3135 11.569 17.7265 13.5835 18.5307 15.4301C18.7495 15.9326 18.8392 16.5063 19.1244 16.962C19.8697 18.1529 19.9778 19.1745 18.7328 20.1347C18.2691 20.4923 17.7461 21.1345 18.2519 21.7099C18.915 22.4643 19.482 21.7383 19.9044 21.2712C20.6736 20.4207 21.3206 20.5724 22.0698 21.2908C23.331 22.5002 24.8543 23.2475 26.5435 23.6825C27.2465 23.8635 27.9788 23.9545 28.2649 23.1634C28.5793 22.2939 27.7161 22.1394 27.191 22.0213C21.8459 20.8184 19.0203 14.9806 20.0846 9.4669C21.0757 4.33242 26.1236 0.0882719 31.4723 0.00239934C35.2169 -0.0577074 38.465 1.00252 40.7224 4.19794C41.0657 4.68389 41.4523 5.28691 41.4588 5.84002C41.5163 10.7142 41.4921 15.5894 41.4921 20.3791C40.5221 20.8882 40.0703 20.1927 39.5199 19.906C37.0204 18.6039 34.5855 18.6374 32.2644 20.2733C30.1186 21.7856 29.2257 23.9433 29.6141 26.4946C30.0494 29.3538 31.7956 31.1857 34.5632 32.047C36.3451 32.6016 37.9288 32.1174 39.4382 31.1782C39.9442 30.8635 40.3268 30.3165 41.0192 30.333C41.6964 30.721 41.5191 31.3985 41.5253 31.9735C41.5525 34.4781 41.4808 36.9849 41.5622 39.4871C41.6096 40.9444 41.0361 41.4012 39.6241 41.3572C36.9387 41.2735 34.2486 41.3494 31.5606 41.3317C29.9938 41.3214 28.5916 41.7126 27.8423 43.1841C27.1581 44.5279 27.9387 45.5968 28.7322 46.6753C30.3195 48.8327 30.0341 51.2098 28.0924 52.899C26.2131 54.5338 23.6066 54.523 21.7346 52.8727C19.9887 51.3335 19.7314 48.8307 21.1332 46.7308C21.9317 45.5346 23.2007 44.4294 21.9976 42.8369C20.8121 41.2676 19.1719 41.1088 17.375 41.4994C13.006 42.4493 9.64617 44.7212 7.63336 48.8092C7.42346 49.2355 7.11089 49.6113 6.74639 50.1605C3.74195 48.3423 1.62228 45.9229 0.655316 42.6358C-1.15698 36.4749 0.837158 30.9539 6.04891 27.194C6.95245 26.5422 7.63146 26.3532 8.61557 27.1368C10.1316 28.3439 12.1232 28.8686 13.4409 30.4089C13.8192 30.8512 14.3078 30.789 14.7787 30.2532Z" fill="#FF7F4C"/>
<path d="M74.2673 26.0232C73.6614 26.2086 73.1934 26.3483 72.7265 26.491C70.1122 27.2904 69.785 28.0528 71.1525 30.4051C72.2414 32.2783 72.3262 34.1467 71.0911 35.9248C69.8446 37.7192 67.9963 38.5365 65.8463 38.3017C63.7774 38.0756 62.4283 36.7816 61.753 34.8255C61.3637 33.698 61.4 32.5528 61.7305 31.4041C61.887 30.8601 62.3572 30.3153 61.8802 29.7081C59.8416 30.3331 59.5452 31.9347 60.5994 37.5499C55.4329 33.7201 49.9541 31.8629 44.0292 32.1531C43.4129 31.6628 43.5363 31.1393 43.4999 30.6693C43.412 29.5369 42.9266 28.6687 41.8354 28.2563C40.7856 27.8596 39.9709 28.2857 39.2086 29.0344C37.7429 30.4741 35.9908 30.7409 34.1419 29.9356C32.2863 29.1273 31.2927 27.2766 31.4207 25.1585C31.608 22.0588 34.7081 20.0357 37.6207 21.1442C38.182 21.3578 38.7258 21.6792 39.1979 22.0518C40.0852 22.7521 41.0284 23.095 42.0802 22.5712C43.1917 22.0177 43.5278 20.9872 43.5273 19.8116C43.5253 15.5951 43.5849 11.3773 43.4941 7.16276C43.4595 5.56105 43.9985 4.33488 45.0517 3.21926C49.1393 -1.11066 57.1906 -0.949317 61.6083 3.56447C66.1995 8.2554 66.1469 15.8497 61.5074 19.987C60.3857 20.9872 59.0436 21.5494 57.6667 22.0671C57.1519 22.2607 56.5112 22.4865 56.712 23.1862C56.9414 23.9856 57.6233 23.8389 58.2332 23.6482C59.8282 23.1494 61.3142 22.4115 62.5161 21.2518C63.4318 20.3684 64.1485 20.3558 64.9489 21.3367C65.3329 21.8074 65.8552 22.3816 66.4581 21.7514C66.9967 21.1883 66.5661 20.5301 66.1049 20.1536C64.9049 19.1741 65.0631 18.1924 65.7028 16.9404C66.6069 15.1708 66.8659 13.2005 66.7159 11.2292C66.5886 9.55718 67.3634 9.38173 68.7094 9.7131C74.3169 11.0936 78.2933 17.3051 77.4045 23.1039C77.1169 24.9797 76.0409 25.6848 74.2673 26.0232Z" fill="#4676FA"/>
<path d="M41.5423 65.7928C42.4402 72.6073 36.582 76.4273 31.034 76.785C25.42 77.1468 19.6521 72.4073 18.9564 66.8611C18.5678 63.7636 18.9928 60.9007 21.0608 58.4303C21.4426 57.9742 21.7122 57.4737 21.1097 57.0097C20.5344 56.5667 20.0427 56.9066 19.6802 57.3469C18.043 59.3353 17.0651 61.5988 16.9746 64.1987C16.9412 65.1589 16.9692 66.1213 16.9692 67.0777C10.785 66.9939 5.30314 58.3192 7.89031 52.954C9.24908 53.4185 10.6185 53.8909 11.9914 54.3529C12.3368 54.4691 12.6881 54.5934 13.0464 54.6402C13.6064 54.7133 14.2299 54.7152 14.4157 54.046C14.621 53.3069 14.0032 53.1372 13.4682 52.9693C12.3627 52.6222 11.2567 52.2768 10.1497 51.9347C8.97622 51.572 8.6529 50.9216 9.15098 49.7178C10.5819 46.2592 14.9143 43.22 18.6484 43.1786C19.3137 43.1712 20.0585 43.1119 20.444 43.8135C20.8651 44.5797 20.2147 45.0452 19.8255 45.5699C18.0112 48.0156 17.9295 50.9783 19.6125 53.215C21.4135 55.6085 24.6133 56.5292 27.3185 55.4321C30.0353 54.3303 31.6995 51.6173 31.4512 48.7436C31.3403 47.4593 30.6554 46.4598 29.9391 45.4637C29.624 45.0254 29.1579 44.6035 29.4655 43.9924C29.7875 43.3527 30.4209 43.2976 31.0475 43.2979C33.9813 43.2994 36.9155 43.3367 39.8487 43.2954C41.1484 43.277 41.5523 43.8836 41.5331 45.089C41.4941 47.5331 41.5415 49.9785 41.5274 52.4232C41.5202 53.6791 41.5153 54.9227 42.8882 55.5523C44.1725 56.1413 45.0719 55.3899 46.0183 54.6583C48.2358 52.944 51.0419 53.2863 52.6749 55.4135C54.2236 57.4307 53.8506 60.2628 51.8098 61.9825C50.2666 63.2829 47.9037 63.3913 46.1814 62.238C45.1996 61.5806 44.3695 60.4581 42.9387 61.1981C41.46 61.9629 41.5199 63.3382 41.5417 64.7006C41.5465 65.0061 41.5423 65.3118 41.5423 65.7928Z" fill="#FF7F4C"/>
<path d="M42.6998 77.0976C43.4791 76.7397 43.3763 76.1513 43.3396 75.6125C43.1063 72.1937 43.7111 68.7768 43.3485 65.3551C43.2731 64.6432 43.2884 63.8818 43.981 63.1374C47.5422 65.5524 51.1233 66.0014 54.0881 62.2264C56.0632 59.7116 55.9556 56.8208 54.1587 54.4359C52.9466 52.8272 51.3067 52.0594 49.3118 51.8241C47.2681 51.5831 45.7277 52.736 44.193 53.5788C43.3369 53.0751 43.5447 52.4003 43.5425 51.8274C43.5239 46.9987 43.5746 42.1693 43.5017 37.3416C43.4781 35.7825 43.9756 35.2037 45.5877 35.1586C56.6037 34.8499 65.97 43.8936 66.2007 54.8898C66.3363 61.3559 64.1343 66.6922 59.5144 71.1226C58.6779 71.9248 57.823 72.7302 57.1221 73.6455C56.3134 74.7018 55.6768 75.7114 56.7744 77.1944C57.8879 78.699 56.7888 80.6077 54.7423 80.9237C51.1851 81.4728 47.6102 81.9154 44.0351 82.3371C40.1569 82.7946 36.2694 83.1733 32.3868 83.594C30.4258 83.8065 29.1646 83.0173 28.983 81.443C28.813 79.9692 29.9949 78.7615 31.8641 78.5195C35.4317 78.0576 39.0004 77.6043 42.6998 77.0976ZM58.7581 44.2604C58.0357 43.8011 57.2997 42.6894 56.4355 43.6809C55.6035 44.6356 56.647 45.2885 57.2929 45.914C59.339 47.8954 60.441 50.3543 60.9069 53.128C61.0404 53.9227 61.1361 54.899 62.2097 54.726C63.2403 54.56 63.1295 53.5574 63.0443 52.7803C62.686 49.5107 61.2804 46.74 58.7581 44.2604Z" fill="#4676FA"/>
<mask id="mask0_1389_148" style="mask-type:alpha" maskUnits="userSpaceOnUse" x="28" y="34" width="39" height="50">
<path d="M42.711 76.9096C43.4903 76.5517 43.3875 75.9633 43.3508 75.4245C43.1175 72.0057 43.7223 68.5888 43.3598 65.1671C43.2843 64.4552 43.2996 63.6938 43.9922 62.9494C47.5534 65.3644 51.1345 65.8134 54.0994 62.0384C56.0744 59.5236 55.9669 56.6328 54.1699 54.2479C52.9578 52.6393 51.3179 51.8715 49.323 51.6361C47.2793 51.3951 45.7389 52.5481 44.2042 53.3908C43.3481 52.8871 43.5559 52.2123 43.5537 51.6394C43.5351 46.8107 43.5859 41.9813 43.5129 37.1536C43.4894 35.5945 43.9869 35.0157 45.5989 34.9706C56.6149 34.6619 65.9813 43.7056 66.2119 54.7018C66.3475 61.1679 64.1455 66.5042 59.5256 70.9347C58.6891 71.7368 57.8342 72.5422 57.1334 73.4575C56.3246 74.5138 55.6881 75.5234 56.7856 77.0064C57.8992 78.511 56.8 80.4198 54.7535 80.7357C51.1963 81.2848 47.6215 81.7274 44.0463 82.1491C40.1681 82.6066 36.2806 82.9853 32.3981 83.406C30.437 83.6185 29.1758 82.8293 28.9942 81.255C28.8242 79.7812 30.0062 78.5735 31.8753 78.3315C35.4429 77.8696 39.0116 77.4164 42.711 76.9096ZM58.7693 44.0724C58.0469 43.6131 57.3109 42.5014 56.4467 43.4929C55.6147 44.4476 56.6582 45.1005 57.3042 45.726C59.3502 47.7074 60.4522 50.1663 60.9181 52.94C61.0516 53.7347 61.1473 54.711 62.221 54.538C63.2515 54.372 63.1407 53.3694 63.0555 52.5923C62.6973 49.3227 61.2916 46.552 58.7693 44.0724Z" fill="#4676FA"/>
</mask>
<g mask="url(#mask0_1389_148)">
<path d="M70.424 71.0893C65.7293 73.5834 56.1198 64.9153 51.9019 60.2695H41.2655L26.0444 72.5564V87.044L64.739 83.5596L70.424 71.0893Z" fill="url(#paint0_linear_1389_148)"/>
</g>
<path d="M65.6916 67.6386C71.2325 57.8623 69.7914 48.7159 63.1321 39.6155C66.9485 40.3885 69.9301 39.9694 72.1205 37.2226C74.3375 34.4425 73.9387 31.5662 71.9184 28.5538C74.0589 27.8208 75.9212 27.1544 77.8088 26.5695C78.0735 26.4875 78.4962 26.7531 78.7883 26.9451C86.5833 32.068 87.0827 43.4858 79.6743 49.1907C78.1702 50.349 77.5214 51.3479 77.7537 53.3812C78.4113 59.1386 75.2476 65.1177 69.7939 67.069C68.0692 67.686 67.2018 69.5885 65.7826 70.7456C64.4786 71.8088 63.2044 72.8744 61.5659 73.4744C62.8101 71.462 64.4832 69.7957 65.6916 67.6386Z" fill="#4676FA"/>
<mask id="mask1_1389_148" style="mask-type:alpha" maskUnits="userSpaceOnUse" x="61" y="26" width="24" height="48">
<path d="M65.7473 67.6112C71.2881 57.835 69.8471 48.6886 63.1878 39.5881C67.0041 40.3611 69.9858 39.942 72.1762 37.1953C74.3932 34.4152 73.9943 31.5388 71.974 28.5265C74.1145 27.7935 75.9768 27.1271 77.8644 26.5422C78.1292 26.4601 78.5518 26.7257 78.844 26.9178C86.639 32.0407 87.1383 43.4585 79.73 49.1634C78.2259 50.3216 77.5771 51.3206 77.8093 53.3538C78.467 59.1112 75.3033 65.0904 69.8495 67.0417C68.1249 67.6587 67.2574 69.5612 65.8382 70.7183C64.5342 71.7815 63.2601 72.847 61.6216 73.447C62.8657 71.4346 64.5388 69.7684 65.7473 67.6112Z" fill="#4676FA"/>
</mask>
<g mask="url(#mask1_1389_148)">
<path d="M69.5076 71.09C78.0167 56.2724 74.1533 45.2936 70.6079 38.9974L56.6705 37.5303L55.02 59.1699C56.6705 71.09 60.9984 85.9076 69.5076 71.09Z" fill="url(#paint1_linear_1389_148)"/>
</g>
<path d="M29.8102 86.8239C31.0364 85.4711 32.6361 85.7461 34.0301 85.5644C40.3127 84.7454 46.6126 84.0587 52.9077 83.3365C53.5121 83.2672 54.1273 83.242 54.735 83.2642C56.2115 83.3182 56.9711 84.2207 57.0823 85.586C57.1926 86.939 56.6376 88.0331 55.1684 88.2632C52.7021 88.6496 50.2249 88.9781 47.744 89.2565C42.6576 89.8274 37.5685 90.378 32.4749 90.8789C29.8656 91.1356 28.7289 89.4599 29.8102 86.8239Z" fill="black"/>
<path d="M34.935 92.9763C41.0055 92.1592 46.9798 91.4317 52.7861 90.7246C53.3808 91.2625 53.2399 91.6817 53.0777 92.0759C51.5075 95.8917 48.6976 98.2824 44.6052 98.7632C40.7873 99.2117 37.7186 97.5673 35.3932 94.5449C35.0704 94.1253 34.6639 93.6922 34.935 92.9763Z" fill="black"/>
<rect x="28.6626" y="79.1523" width="28.3765" height="5.61624" rx="2.80812" transform="rotate(-8.10936 28.6626 79.1523)" fill="black"/>
<defs>
<linearGradient id="paint0_linear_1389_148" x1="59.7876" y1="63.7539" x2="40.8987" y2="89.9782" gradientUnits="userSpaceOnUse">
<stop stop-color="#437EFE"/>
<stop offset="1" stop-color="#002199"/>
</linearGradient>
<linearGradient id="paint1_linear_1389_148" x1="65.1631" y1="37.5303" x2="65.1631" y2="81.6422" gradientUnits="userSpaceOnUse">
<stop stop-color="#4676FA"/>
<stop offset="1" stop-color="#123FB8"/>
</linearGradient>
</defs>
</svg>
